<?xml version="1.0" encoding="utf-8"?>
<!-- Generator: Adobe Illustrator 19.2.1, SVG Export Plug-In . SVG Version: 6.00 Build 0)  -->
<svg version="1.1" id="Capa_1" xmlns="http://www.w3.org/2000/svg" xmlns:xlink="http://www.w3.org/1999/xlink" x="0px" y="0px"
	 viewBox="0 0 458.4 430.3" style="enable-background:new 0 0 458.4 430.3;" xml:space="preserve">
<g>
	<circle cx="110.6" cy="35.4" r="35.4"/>
	<path d="M179.7,116.9c-7.9-23.1-21.2-34.8-39.5-34.8c-25.7,0-33.6,0-59.2,0c-18.3,0-31.6,11.7-39.5,34.8
		C29.2,152.6,1.3,229,1,229.7c-3.2,8.9,1.3,18.7,10.2,21.9c8.8,3.2,18.7-1.3,21.9-10.2c0.2-0.6,20.3-55.5,34-94.2
		c-0.9,7.5,2-8.4-24.3,127.2c-0.5,2.8,0.2,5.7,2,7.8c1.8,2.2,4.5,3.5,7.3,3.5c3.7,0,8.1,0,13,0v123.9c0,11.3,9.2,20.5,20.5,20.5
		s20.5-9.2,20.5-20.5V285.8c2.9,0,5.9,0,8.9,0v123.9c0,11.3,9.2,20.5,20.5,20.5s20.5-9.2,20.5-20.5V285.8c4.9,0,9.4,0,13,0
		c2.8,0,5.5-1.3,7.3-3.5c1.8-2.2,2.5-5.1,2-7.9c-26.5-136.8-23.4-119.8-24.3-127.8c14.7,40.4,38.6,101.3,39.8,104.3
		c3.4,8.8,13.4,13.1,22.1,9.7c8.8-3.4,13.1-13.4,9.7-22.1C225.3,237.6,192,152.4,179.7,116.9z"/>
	<circle cx="371.9" cy="35.8" r="35.3"/>
	<path d="M457.8,122.5c-0.1-22.1-18.2-40.1-40.3-40.1c-1.3,0-8.9,0-92.5,0c-22.1,0-40.2,18-40.3,40.1L284,247.8
		c0,9.4,7.5,17.1,17,17.1c0,0,0.1,0,0.1,0c9.4,0,17-7.6,17-17l0.6-125.2c0,0,0,0,0,0c0.1-2.1,1.8-3.6,3.9-3.6
		c2.1,0.1,3.7,1.7,3.7,3.8c0,42.1,0,276.9,0,286.4c0,11.3,9.2,20.5,20.5,20.5s20.5-9.2,20.5-20.5V245.8l0,0h8.8l0,0v163.5
		c0,11.3,9.2,20.5,20.5,20.5s20.5-9.2,20.5-20.5c0-76.6-0.4-207.1-0.4-286.5c0-2,1.6-3.6,3.5-3.6c2,0,3.6,1.6,3.6,3.5c0,0,0,0,0,0
		l0.6,125.2c0,9.4,7.7,17,17,17c0,0,0.1,0,0.1,0c9.4,0,17-7.7,17-17.1L457.8,122.5z"/>
	<path d="M253,14.9c-8.3,0-15,6.7-15,15v367c0,8.3,6.7,15,15,15s15-6.7,15-15v-367C268,21.6,261.3,14.9,253,14.9z"/>
</g>
</svg>
