<svg xmlns="http://www.w3.org/2000/svg" width="102" height="6" viewBox="0 0 102 6">
  <defs>
    <style>
      .cls-1 {
        fill: #e12727;
        fill-rule: evenodd;
      }
    </style>
  </defs>
  <path id="Rectangle_33_copy_3" data-name="Rectangle 33 copy 3" class="cls-1" d="M3.031,1.563H78.594a2,2,0,0,1,2,2V3.719a2,2,0,0,1-2,2H3.031a2,2,0,0,1-2-2V3.563A2,2,0,0,1,3.031,1.563ZM88.25,0.531h0.156a2.5,2.5,0,0,1,2.5,2.5V3.219a2.5,2.5,0,0,1-2.5,2.5H88.25a2.5,2.5,0,0,1-2.5-2.5V3.031A2.5,2.5,0,0,1,88.25.531Zm10.344,0H98.75a2.5,2.5,0,0,1,2.5,2.5V3.219a2.5,2.5,0,0,1-2.5,2.5H98.594a2.5,2.5,0,0,1-2.5-2.5V3.031A2.5,2.5,0,0,1,98.594.531Z"/>
</svg>
