<?xml version="1.0" encoding="utf-8"?>
<!-- Generator: Adobe Illustrator 19.2.1, SVG Export Plug-In . SVG Version: 6.00 Build 0)  -->
<svg version="1.1" id="Layer_1" xmlns="http://www.w3.org/2000/svg" xmlns:xlink="http://www.w3.org/1999/xlink" x="0px" y="0px"
	 viewBox="0 0 511 511" style="enable-background:new 0 0 511 511;" xml:space="preserve">
<style type="text/css">
	.st0{fill:#FFFFFF;}
</style>
<path class="st0" d="M496.2,139c-1.6-3.8-6-5.5-9.8-3.9c-3.8,1.6-5.5,6-3.9,9.8c9,20.9,13.6,43.1,13.6,66.1v126.2h-64.8V211
	c0-23.9-8.4-47.1-23.7-65.4c-2-2.4-5.2-3.3-8.1-2.3c-2.9,1-5,3.6-5.1,6.6L384.7,303c0,0.4,0,0.8-0.1,1.1l-102-0.1
	c-6.4-5.2-14.5-8.3-23.3-8.3c-8.8,0-16.8,3.1-23.2,8.2l-81.3-0.1l88.7-120.1c0,0,0,0,0,0l78.4-106c0-0.1,0.1-0.1,0.1-0.1l5.9-8.4
	c4.6-6.6,5.2-15.1,1.5-22.2s-11-11.6-19-11.6H208.2c-8,0-15.3,4.4-19,11.6c-3.7,7.1-3.1,15.6,1.5,22.2l5.1,7.2
	c0,0.1,0.1,0.1,0.1,0.1l34.7,46.9c2.5,3.3,7.1,4,10.5,1.6c3.3-2.5,4-7.1,1.6-10.5L208,67.8l-5-7.2c-2-2.9-1-5.7-0.4-6.7
	c0.5-1,2.2-3.5,5.8-3.5h102.2c3.6,0,5.2,2.4,5.8,3.5c0.5,1,1.6,3.8-0.4,6.7l-5.8,8.3l-72.3,97.8l-62.8-84.8
	c-5.2-7.1-8.1-15.8-8.1-24.6c0-22.8,18.6-41.4,41.4-41.4h102.5c22.8,0,41.4,18.6,41.4,41.4c0,8.8-2.9,17.5-8.1,24.6L203.3,272
	c-2.5,3.3-1.8,8,1.6,10.5c3.3,2.5,8,1.8,10.5-1.6L355.9,90.8c7.1-9.6,11.1-21.5,11.1-33.5c0-3.2-0.3-6.3-0.8-9.3
	c40,9.2,75.8,33.1,99.6,67c1.5,2.1,3.8,3.2,6.1,3.2c1.5,0,3-0.4,4.3-1.4c3.4-2.4,4.2-7,1.8-10.4C450.4,67,407.8,40,360.7,31.6
	C351.4,13.5,332.4,1,310.6,1H208.1c-21.3,0-39.9,11.9-49.5,29.4c-42.9,5.5-82.4,26.2-111.6,58.4C16.7,122.3,0,165.7,0,211v128.7
	c0,6.9,5.6,12.5,12.5,12.5h69.8c6.9,0,12.5-5.6,12.5-12.5V211c0-13,2.9-25.7,8.4-37.3l8.2,131c0,0.4,0,0.9,0.1,1.3
	c-0.6,0.4-1.3,0.9-1.8,1.5c-2.4,2.4-3.7,5.5-3.7,8.8l0,24.9c0,2.4,0.7,4.7,1.9,6.6l-7.8,58.5l-55,39.6c-2.7,1.9-4.5,4.8-5,8.1
	c-0.5,3.3,0.2,6.6,2.2,9.3l14.6,20.2c2.4,3.4,6.3,5.2,10.1,5.2c2.5,0,5.1-0.8,7.3-2.3l70.2-50.5h249c0.7,0,1.5-0.1,2.2-0.1
	c7.2,6.8,14.1,13.9,20.8,21.4c2.5,2.8,5.9,4.2,9.4,4.2c2.9,0,5.8-1,8.1-3l18.8-16.3c2.5-2.2,4.1-5.3,4.3-8.6
	c0.2-3.4-0.9-6.6-3.1-9.1c-14.3-16-29.7-30.8-46.2-44.3l-4.4-33.5c0.7-1.5,1-3.2,1-4.9l0-24.9c0-3.9-1.8-7.4-4.6-9.7
	c0-1,0.1-2,0.1-3l8.2-130.4c5.5,11.6,8.4,24.4,8.4,37.4v128.7c0,6.9,5.6,12.5,12.5,12.5h69.8c6.9,0,12.5-5.6,12.5-12.5V211
	C511,186,506,161.7,496.2,139z M304.2,319.1l85,0.1l0,19.9l-42.4-0.1C332.9,331.5,318.7,324.8,304.2,319.1z M281.3,332.7
	c0,12.1-9.8,21.9-21.9,21.9c-12.1,0-21.9-9.8-21.9-21.9c0-12.1,9.8-21.9,21.9-21.9C271.5,310.7,281.3,320.6,281.3,332.7z
	 M193.8,338.8l-73-0.1l0-20l100.7,0.1L193.8,338.8z M103.5,145.6c-15.2,18.3-23.6,41.5-23.6,65.4v126.2H15V211
	c0-81.9,58.5-150.7,137.9-164.6c-0.7,3.5-1.1,7.2-1.1,10.9c0,12,3.9,23.9,11.1,33.5l65.5,88.5l-92,124.5l-10,0c0-0.1,0-0.1,0-0.2
	l-9.6-153.8c-0.2-3.1-2.2-5.7-5.1-6.6C108.6,142.3,105.4,143.2,103.5,145.6z M122.1,353.7l51,0.1l-56.4,40.5L122.1,353.7z
	 M67.4,472.8l-11.7-16.2l55.6-40c0,0,0,0,0,0l111.3-80c0.7,7.1,3.5,13.7,7.8,19L67.4,472.8z M165.1,421l77.3-55.6
	c5.1,2.7,10.9,4.2,17,4.2c7.7,0,14.8-2.4,20.7-6.4c35.6,13.4,69.1,33,98.7,57.7H165.1z M440.9,432.3l-15.1,13.1
	c-6.8-7.5-13.8-14.7-21.2-21.6c-0.8-1.5-2.1-2.6-3.5-3.3c-32.4-29.7-69.8-53.2-110-69.1c3.3-5.5,5.1-11.9,5.1-18.8
	c0-0.2,0-0.4,0-0.7C351,353.3,400.7,387.8,440.9,432.3z M371.9,354l17.1,0l1.7,12.9C384.6,362.5,378.3,358.2,371.9,354z"/>
</svg>
