<?xml version="1.0" encoding="utf-8"?>
<!-- Generator: Adobe Illustrator 19.2.1, SVG Export Plug-In . SVG Version: 6.00 Build 0)  -->
<svg version="1.1" id="Capa_1" xmlns="http://www.w3.org/2000/svg" xmlns:xlink="http://www.w3.org/1999/xlink" x="0px" y="0px"
	 viewBox="0 0 512 512" style="enable-background:new 0 0 512 512;" xml:space="preserve">
<style type="text/css">
	.st0{fill:#FFFFFF;}
</style>
<g>
	<g>
		<path class="st0" d="M276,392c-5.5,0-10,4.5-10,10s4.5,10,10,10s10-4.5,10-10S281.5,392,276,392z"/>
	</g>
</g>
<g>
	<g>
		<path class="st0" d="M482,452h-0.4c18.4-14.9,30.4-36.7,30.4-60c0-33.8-21.4-64.1-53.2-75.4c0,0-0.1,0-0.1,0l-85.5-29.1L404.6,126
			H416c27.6,0,50-22.4,50-50V30c0-16.5-13.5-30-30-30c-16.6,0-30,13.4-30,30v36h-50c-16.5,0-30,13.5-30,30c0,12.2,7.4,22.8,18,27.5
			l-28.1,144.5l-142.4-48.5c-8.4-3-17-5.1-25.9-6.3L130.1,146h32.8c9.9,0,19.2-3.9,26.2-10.9c7-7,10.9-16.3,10.9-26.2
			c0-18.2-13-33.6-31-36.6C47.1,52.3,53.5,52.6,46.6,52.6C20.9,52.6,0,73.6,0,99.3C0,125.1,20.9,146,46.7,146h21.2l19.1,73.3
			C35.3,237.3,0,286.4,0,342c0,45.9,24,86.8,60.7,110H30c-16.6,0-30,13.4-30,30c0,16.5,13.5,30,30,30h452c16.6,0,30-13.4,30-30
			C512,465.5,498.5,452,482,452z M356,86h60c5.5,0,10-4.5,10-10V30c0-5.5,4.5-10,10-10c5.5,0,10,4.5,10,10v46c0,16.5-13.5,30-30,30
			c-11.8,0-47.2,0-59.6,0c-0.3,0-0.6,0-1,0c-5.2-0.3-9.5-4.7-9.5-10C346,90.5,350.5,86,356,86z M363.9,126h20.4l-30.2,154.9
			l-19.1-6.5L363.9,126z M46.7,126C32,126,20,114,20,99.3c0-14.7,11.9-26.7,26.6-26.7c4.1,0-0.9-0.4,119.1,19.5
			c8.3,1.4,14.3,8.5,14.3,16.8c0,4.6-1.8,8.8-5,12.1c-3.2,3.2-7.5,5-12.1,5H46.7z M126.7,212.1c-6.8,0.2-13.6,0.9-20.3,2.1L88.6,146
			h20.9L126.7,212.1z M20,342c0-49.9,33.6-93.6,81.7-106.3c20.6-5.5,43.7-5,65.1,2.6c0,0,0.1,0,0.1,0l285.2,97.1
			C476,344,492,366.7,492,392c0,31.4-31.4,59-66,59l-310.3,0.1C61.1,444,20,397.2,20,342z M482,492H30c-5.5,0-10-4.5-10-10
			c0-5.5,4.5-10,10-10c8.4,0,362.1,0,452,0c5.5,0,10,4.5,10,10C492,487.5,487.5,492,482,492z"/>
	</g>
</g>
<g>
	<g>
		<path class="st0" d="M376,332c-27.6,0-50,22.4-50,50s22.4,50,50,50s50-22.4,50-50S403.6,332,376,332z M376,412
			c-16.5,0-30-13.5-30-30s13.5-30,30-30s30,13.5,30,30S392.5,412,376,412z"/>
	</g>
</g>
<g>
	<g>
		<path class="st0" d="M236,392h-41.9l-8.1-8.1c9-12,13.9-26.6,13.9-41.9c0-38.6-31.4-70-70-70s-70,31.4-70,70s31.4,70,70,70
			c15.3,0,29.9-4.9,41.9-13.9l11,11c1.9,1.9,4.4,2.9,7.1,2.9h46c5.5,0,10-4.5,10-10S241.5,392,236,392z M171.7,369.6l-34.7-34.7
			c-3.9-3.9-10.2-3.9-14.1,0c-3.9,3.9-3.9,10.2,0,14.1l34.7,34.6c-8.1,5.4-17.6,8.3-27.6,8.3c-27.6,0-50-22.4-50-50s22.4-50,50-50
			s50,22.4,50,50C180,352,177.1,361.5,171.7,369.6z"/>
	</g>
</g>
</svg>
