<?xml version="1.0" encoding="utf-8"?>
<!-- Generator: Adobe Illustrator 19.2.1, SVG Export Plug-In . SVG Version: 6.00 Build 0)  -->
<svg version="1.1" id="Layer_1" xmlns="http://www.w3.org/2000/svg" xmlns:xlink="http://www.w3.org/1999/xlink" x="0px" y="0px"
	 viewBox="0 0 512 512" style="enable-background:new 0 0 512 512;" xml:space="preserve">
<style type="text/css">
	.st0{fill:#FFFFFF;}
</style>
<path class="st0" d="M494.6,365.2h-9.5v-51.1c0-12-9.8-21.8-21.7-21.8h-29.6c-4,0-7.8,1.1-11.1,3c-5.1-20-10.2-36.3-20.5-48.9
	c-9.9-12.1-23.6-19.6-43.1-23.2c-0.2-0.1-0.5-0.1-0.7-0.1c-5.8-1.1-12-1.8-18.8-2.2c-0.4,0-0.7-0.1-1.1-0.1c-0.7,0-1.4-0.1-2.1-0.1
	c-0.1,0-0.2,0-0.3,0c-8.8,0-16.6-2.4-22.1-6.6c19-15.3,33.9-36.6,39.9-57.6c6.4-1.4,12.9-5,18.1-10.1c6.7-6.6,10.6-15,10.6-23V113
	c0-9.9-8-17.9-17.9-17.9h-7.9v-7.6c0-30-13.3-55.1-37.3-70.8C289.7-2.6,246.8-5.5,212.5,9.6c-33.2,14.6-52.2,43-52.2,77.9v7.6h-7.9
	c-9.9,0-17.9,8-17.9,17.9v10.2c0,8,3.9,16.3,10.6,23c5.2,5.2,11.7,8.7,18.1,10.1c5.7,20.1,19.5,40.4,37.3,55.5
	c-5,5-12.9,8.2-22.2,8.7c-0.1,0-0.1,0-0.2,0c-0.3,0-1.1,0-1.9,0.1c-1,0-2,0.1-2.2,0.1c-7,0.4-13.4,1.1-19.3,2.1c0,0-0.1,0-0.1,0
	c-1,0-1.9,0.2-2.8,0.5c-19.2,3.8-32.6,11.3-42.4,23.4c-10.1,12.6-15.2,28.7-20.2,48.6c-3.2-1.9-7-3-11-3H48.7
	c-12,0-21.8,9.8-21.8,21.8v49.1h-9.5c-9.6,0-17.4,7.9-17.4,17.6v38.2c0,9.7,7.8,17.6,17.4,17.6h9.5v49.7c0,12,9.8,21.7,21.8,21.7
	h29.6c12,0,21.7-9.8,21.7-21.7v-28.5c4.1,1.1,8.4,1.7,12.7,1.7c13.1,0,25.3-5.1,34.4-13.9c0.1,19.5,8.9,31.4,28.3,38.5
	c17.9,6.5,47.9,9.8,78.6,9.8c30.5,0,61.6-3.2,82-9.7c19.4-6.2,28.5-18.5,28.6-38.6c9.1,8.8,21.3,13.9,34.4,13.9
	c4.3,0,8.6-0.6,12.7-1.7v28.5c0,12,9.8,21.7,21.8,21.7h29.6c12,0,21.7-9.8,21.7-21.7v-47.8h9.5c9.6,0,17.4-7.9,17.4-17.6v-38.1
	C512,373.1,504.2,365.2,494.6,365.2z M356.6,136.8v-26.6h7.9c1.5,0,2.8,1.3,2.8,2.8v10.2c0,3.9-2.3,8.5-6.1,12.2
	c-1.4,1.4-3,2.6-4.7,3.6C356.6,138.4,356.6,137.6,356.6,136.8z M155.8,135.5c-3.8-3.8-6.1-8.3-6.1-12.2V113c0-1.5,1.3-2.8,2.8-2.8
	h7.9v26.6c0,0.8,0,1.6,0.1,2.3C158.8,138.1,157.2,136.9,155.8,135.5z M26.9,421.4h-9.5c-1.2,0-2.3-1.1-2.3-2.5v-38.2
	c0-1.3,1-2.5,2.3-2.5h9.5V421.4z M84.9,446.5L84.9,446.5v39.7c0,3.6-3,6.6-6.6,6.6H48.7c-3.7,0-6.7-3-6.7-6.6V314.1
	c0-3.6,3-6.7,6.7-6.7h29.6c3.6,0,6.6,3,6.6,6.7V446.5z M411.9,409.9h-18.1c0-0.3,0-0.5,0-0.8v-18.8h18.1V409.9z M218.6,23.5
	c29.8-13.1,66.9-10.7,92.4,5.9c13.1,8.6,28.6,24.6,30.3,53c-54.2,19.7-75.9,11.4-98.8,2.8c-12.7-4.8-25.6-9.7-43.5-9.7
	c-6.9,0-14.4,0.7-23,2.4C180,45.3,203.9,29.9,218.6,23.5z M177.1,149.6c0-0.1,0-0.1,0-0.1c0-1.1-0.3-2.1-0.7-3
	c-0.6-3.3-0.9-6.5-0.9-9.6V93.4c28.8-6.6,44.2-0.9,61.7,5.8c13,4.9,26.9,10.2,47,10.2c15,0,33.4-2.9,57.3-11.1v38.5
	c0,3.1-0.3,6.3-0.9,9.5c-0.4,0.9-0.7,2-0.7,3.1c0,0.1,0,0.2,0,0.2c-6.6,27.4-32.4,56.9-61.4,67.7c-14.8,5.5-25.2,5.5-40,0
	C209.5,206.6,183.6,177,177.1,149.6z M212.7,221.1c6.5,4.3,13.4,7.8,20.5,10.5c9.1,3.4,17.1,5.1,25.2,5.1c8.1,0,16.2-1.7,25.3-5.1
	c5.9-2.2,11.7-5.1,17.3-8.5c6.2,6,14.6,10.1,24.3,11.8c-11,11-34.7,20.5-66.9,20.5c-31.9,0-56.8-9.9-67.7-21.5
	C199.7,231.6,207.3,227.1,212.7,221.1z M100.1,315l1.2-4.7c9.4-38.2,15-61.1,46-70.2v47.9c0,4.2,3.4,7.6,7.6,7.6
	c4.2,0,7.6-3.4,7.6-7.6V237c3.5-0.5,7.3-0.8,11.3-1.1c11.3,20.6,44.9,34.6,84.9,34.6c39.8,0,73.3-13.8,84.6-34.2
	c2.3,0.2,4.4,0.4,6.5,0.7v50.9c0,4.2,3.4,7.6,7.6,7.6c4.2,0,7.6-3.4,7.6-7.6v-47.8c31,9.1,36.6,32.1,46,70.2l1.2,4.7v60.3h-18.1
	v-0.8c0-8-3.7-12.8-6.8-15.5c-5.1-4.3-12.4-6.2-22.2-5.6v-30.5c0-4.2-3.4-7.6-7.6-7.6c-4.2,0-7.6,3.4-7.6,7.6v32.6l-26.1,4.4
	c-8.2,1.4-17.6,5.3-21.1,15.4h-93.2c-3.6-9.6-12.8-13.4-20.9-14.8l-26.1-4.4v-33.2c0-4.2-3.4-7.6-7.6-7.6s-7.6,3.4-7.6,7.6V354
	c-9.8-0.5-17.1,1.3-22.2,5.6c-3.1,2.6-6.8,7.4-6.8,15.5v0.2h-18.1V315z M346,423c-8.7,0-16.8-1.6-22.4-4.4c-7.4-3.8-7.4-8-7.4-9.4
	v-24.4l0-0.5c0-3.5-0.1-7.8,9.9-9.5l32.4-5.5h0c13-2.2,17.5,0.2,18.8,1.3c1,0.9,1.4,2,1.4,3.9v34.7C378.7,416.5,363.4,423,346,423z
	 M301.2,409.9h-90.3c0-0.1,0-0.1,0-0.2v-19.4h90.2v18.8C301.1,409.4,301.1,409.7,301.2,409.9z M100.1,390.4h18.1v19.4
	c0,0.1,0,0.1,0,0.2h-18.1V390.4z M112.8,444.3c-4.4,0-8.7-0.8-12.7-2.4v-16.8h24.5c2.7,2.9,6.3,5.4,10.6,7.4
	c0.8,0.4,1.7,0.8,2.6,1.1C131.4,440.4,122.4,444.3,112.8,444.3z M133.3,409.8v-34.7c0-1.9,0.4-3.1,1.4-3.9c0.9-0.8,3.4-2.2,9.3-2.2
	c2.5,0,5.6,0.3,9.5,0.9l32.4,5.5c8,1.4,9.6,4.5,9.8,7.4c0,0.3,0,0.6,0.1,0.8c0,0.4,0,0.8,0,1.3v24.9c0,0.7,0,2.1-0.9,3.8
	c-0.1,0.1-0.2,0.3-0.2,0.4c-1,1.6-2.8,3.5-6.3,5.2c-5.5,2.8-13.7,4.4-22.4,4.4C148.6,423.6,133.3,417.1,133.3,409.8z M349.7,445.1
	c0,13.9-4.7,20.4-18.1,24.7c-37.1,11.8-118.8,11.8-150.8,0.1c-13.8-5.1-18.4-11.3-18.4-24.8v-6.5c1.2,0.1,2.4,0.1,3.7,0.1
	c11.1,0,21.5-2.1,29.2-6c4.1-2.1,7.5-4.7,10-7.6h102.2c2.5,2.7,5.6,5.1,9.5,7c7.7,3.9,18.1,6,29.2,6c1.2,0,2.4,0,3.6-0.1
	L349.7,445.1L349.7,445.1z M399.2,444.3c-9.8,0-18.9-4.1-25.4-11.2c1-0.4,2.1-0.9,3-1.3c4-1.9,7.3-4.2,10-6.8h25.1v16.8
	C407.9,443.5,403.6,444.3,399.2,444.3z M470,486.3c0,3.7-3,6.6-6.6,6.6h-29.6c-3.7,0-6.7-3-6.7-6.6v-39.7c0,0,0,0,0-0.1V314.1
	c0-3.6,3-6.7,6.7-6.7h29.6c3.7,0,6.6,3,6.6,6.7V486.3z M496.9,420.9c0,1.3-1,2.5-2.3,2.5h-9.5v-43.1h9.5c1.2,0,2.3,1.1,2.3,2.5
	V420.9z"/>
<path class="st0" d="M223.6,144.2c4.2,0,7.6-3.4,7.6-7.6v-8.5c0-4.2-3.4-7.6-7.6-7.6s-7.6,3.4-7.6,7.6v8.5
	C216.1,140.8,219.4,144.2,223.6,144.2z"/>
<path class="st0" d="M294.3,144.2c4.2,0,7.6-3.4,7.6-7.6v-8.5c0-4.2-3.4-7.6-7.6-7.6c-4.2,0-7.6,3.4-7.6,7.6v8.5
	C286.8,140.8,290.2,144.2,294.3,144.2z"/>
</svg>
