<?xml version="1.0" encoding="utf-8"?>
<!-- Generator: Adobe Illustrator 19.2.1, SVG Export Plug-In . SVG Version: 6.00 Build 0)  -->
<svg version="1.1" id="Layer_1" xmlns="http://www.w3.org/2000/svg" xmlns:xlink="http://www.w3.org/1999/xlink" x="0px" y="0px"
	 viewBox="0 0 304 336" style="enable-background:new 0 0 304 336;" xml:space="preserve">
<style type="text/css">
	.st0{fill:#010002;}
</style>
<g>
	<rect y="320" width="16" height="16"/>
	<path d="M223,320h-96v-16h-16v-16h16v-16H95v-16h32v-16h-16v-16h16v-16H95v-16h32v-16h-16v-16h16v-16H95v-16h32v-16h-16V96h16V80
		H95v48h32v-16h-16V96h16V80H95v48h32v-16h-16V96h16V80H95V64h32V48h-16V32h16V0H48v320H32v16h272v-16h-18.7"/>
	<path d="M262.7,320H303"/>
</g>
<g>
	<g>
		<circle class="st0" cx="223.3" cy="47.5" r="27"/>
		<path class="st0" d="M232.6,87.3c-6.7-1.4-14-1.3-20.6,0.3c-44.8,5.3-59.4,57.2-55.3,96.7c1.8,17.1,28.8,17.3,27,0
			c-1.5-14.4-0.9-36.2,6.8-51.7c0,18.8,0,37.6,0,56.4c0,0.7,0.1,1.3,0.1,1.9c0,0.3-0.1,0.6-0.1,0.9c0,44.8-0.1,63.5-1.9,108.2
			c-0.8,19.9,30,19.8,30.8,0c1.4-35.1,1.8-44.1,1.9-79.2c1.5,0.1,2.9,0.1,4.4,0c0.1,35.1,0.4,44.1,1.9,79.2
			c0.8,19.8,31.6,19.9,30.8,0c-1.8-44.7-1.9-63.5-1.9-108.2c0-1.4-0.2-2.7-0.5-3.9c0-19.4-0.8-38.9-0.6-58.3
			c9.2,15.5,10,39.2,8.4,54.6c-1.8,17.3,25.2,17.1,27,0C295,143.9,279.8,90.6,232.6,87.3z"/>
	</g>
</g>
</svg>
