<?xml version="1.0" encoding="utf-8"?>
<!-- Generator: Adobe Illustrator 19.2.1, SVG Export Plug-In . SVG Version: 6.00 Build 0)  -->
<svg version="1.1" id="Capa_1" xmlns="http://www.w3.org/2000/svg" xmlns:xlink="http://www.w3.org/1999/xlink" x="0px" y="0px"
	 viewBox="0 0 45.3 45.3" style="enable-background:new 0 0 45.3 45.3;" xml:space="preserve">
<style type="text/css">
	.st0{fill:#010002;}
</style>
<g>
	<g>
		<g>
			<g>
				<path class="st0" d="M21.8,24.9c0-0.3,0.2-0.6,0.5-0.8c-6.4-0.6-11.5-6-11.5-12.5c0-1,0.1-1.9,0.3-2.8
					c-4.3,2.1-7.3,6.5-7.3,11.7v11.9c0,7.2,5.8,13,13,13h5.2c-0.1-0.1-0.2-0.3-0.2-0.5V24.9L21.8,24.9z"/>
			</g>
			<g>
				<path class="st0" d="M35.7,9.6c0.1,0.6,0.2,1.3,0.2,1.9c0,6.9-5.6,12.6-12.6,12.6c-0.1,0-0.1,0-0.2,0c0.2,0.2,0.4,0.4,0.4,0.7
					v20c0,0.2-0.1,0.3-0.2,0.5h5.2c7.2,0,13-5.8,13-13V20.5C41.6,15.9,39.2,12,35.7,9.6z"/>
			</g>
			<g>
				<path class="st0" d="M23.3,21.9c6,0,10.9-4.9,10.9-10.9c0-6-4.9-10.9-10.9-10.9c-6,0-10.9,4.9-10.9,10.9
					C12.4,17,17.3,21.9,23.3,21.9z M15.7,10.5h-1.6c0.2-4.7,4-8.4,8.7-8.7c0,0,0,0,0,0v1.7c0,0.3,0.2,0.5,0.5,0.5
					c0.3,0,0.5-0.2,0.5-0.5V1.8c0,0,0,0,0,0c4.7,0.2,8.4,4,8.7,8.7h-1.6c-0.3,0-0.5,0.2-0.5,0.5c0,0.3,0.2,0.5,0.5,0.5h1.6
					c-0.2,4.7-4,8.4-8.7,8.7v-1.6c0-0.3-0.2-0.5-0.5-0.5c-0.3,0-0.5,0.2-0.5,0.5v1.6c-4.7-0.2-8.4-4-8.7-8.7h1.6
					c0.3,0,0.5-0.2,0.5-0.5C16.2,10.7,16,10.5,15.7,10.5z"/>
			</g>
			<g>
				<path class="st0" d="M23.3,11.9c0,0,0.1,0,0.1,0c0,0,0,0,0,0l3.8,3.3l1,0.3l-0.5-1.1l-3.6-3.1c0-0.1,0.1-0.2,0.1-0.3
					c0-0.5-0.4-0.9-0.9-0.9c-0.5,0-0.9,0.4-0.9,0.9C22.4,11.5,22.8,11.9,23.3,11.9z"/>
			</g>
		</g>
	</g>
</g>
</svg>
