<?xml version="1.0" encoding="utf-8"?>
<!-- Generator: Adobe Illustrator 19.2.1, SVG Export Plug-In . SVG Version: 6.00 Build 0)  -->
<svg version="1.1" id="Layer_1" xmlns="http://www.w3.org/2000/svg" xmlns:xlink="http://www.w3.org/1999/xlink" x="0px" y="0px"
	 viewBox="0 0 436 512" style="enable-background:new 0 0 436 512;" xml:space="preserve">
<style type="text/css">
	.st0{fill:#FFFFFF;}
</style>
<g id="surface1">
	<path class="st0" d="M218,158.5c-53.8,0-97.6,43.8-97.6,97.6c0,53.8,43.8,97.6,97.6,97.6c53.8,0,97.6-43.8,97.6-97.6
		C315.5,202.2,271.8,158.5,218,158.5z M275.9,237.6L206,307.5c-2.9,2.9-6.8,4.4-10.6,4.4s-7.7-1.5-10.6-4.4l-26.7-26.7
		c-5.9-5.9-5.9-15.4,0-21.2c5.9-5.9,15.4-5.9,21.2,0l16.1,16.1l59.3-59.3c5.9-5.9,15.4-5.9,21.2,0
		C281.8,222.3,281.8,231.8,275.9,237.6z"/>
	<path class="st0" d="M435.5,138.9l0-0.4c-0.2-4.9-0.4-10.1-0.5-15.9c-0.4-28.2-22.9-51.6-51.1-53.2C325.1,66.2,279.5,47,240.6,9
		l-0.3-0.3c-12.7-11.6-31.8-11.6-44.5,0L195.4,9C156.5,47,111,66.2,52.1,69.5C23.9,71,1.4,94.4,1,122.6c-0.1,5.8-0.2,11-0.5,15.9
		l0,0.9c-1.1,60-2.6,134.7,22.4,202.5c13.7,37.3,34.6,69.7,61.9,96.3c31.1,30.3,71.8,54.4,121,71.6c1.6,0.6,3.3,1,5,1.4
		c2.4,0.5,4.8,0.7,7.2,0.7s4.8-0.2,7.2-0.7c1.7-0.3,3.4-0.8,5-1.4c49.2-17.2,89.9-41.3,120.9-71.6c27.3-26.7,48.1-59.1,61.9-96.4
		C438,273.9,436.6,199.1,435.5,138.9z M218,383.6c-70.4,0-127.6-57.2-127.6-127.6S147.6,128.4,218,128.4
		c70.4,0,127.6,57.2,127.6,127.6S288.4,383.6,218,383.6z"/>
</g>
</svg>
